<svg width="120" height="24" viewBox="0 0 120 24" fill="none" xmlns="http://www.w3.org/2000/svg">
<path d="M14 13.5H16.5L17.5 9.5H14V7.5C14 6.47 14 5.5 16 5.5H17.5V2.14C17.174 2.097 15.943 2 14.643 2C11.928 2 10 3.657 10 6.7V9.5H7V13.5H10V22H14V13.5Z" fill="#FD6E0A"/>
<path d="M70.1623 5.6569C69.3989 5.9946 68.5893 6.21638 67.7603 6.3149C68.634 5.79234 69.288 4.96992 69.6003 4.0009C68.7803 4.4889 67.8813 4.8309 66.9443 5.0159C66.3149 4.34248 65.4807 3.89587 64.5713 3.74549C63.6618 3.59511 62.7282 3.74939 61.9156 4.18436C61.1029 4.61932 60.4567 5.31059 60.0774 6.1507C59.6981 6.9908 59.607 7.93268 59.8183 8.8299C58.1554 8.74656 56.5286 8.31443 55.0436 7.56157C53.5585 6.80871 52.2484 5.75195 51.1983 4.4599C50.8266 5.09835 50.6313 5.82413 50.6323 6.5629C50.6323 8.0129 51.3703 9.2939 52.4923 10.0439C51.8283 10.023 51.1789 9.84368 50.5983 9.5209V9.5729C50.5985 10.5386 50.9327 11.4745 51.5441 12.222C52.1556 12.9694 53.0068 13.4824 53.9533 13.6739C53.3369 13.8409 52.6906 13.8656 52.0633 13.7459C52.3302 14.5771 52.8503 15.3041 53.5509 15.825C54.2515 16.3459 55.0974 16.6347 55.9703 16.6509C55.1028 17.3322 54.1095 17.8359 53.0472 18.1331C51.9849 18.4303 50.8744 18.5152 49.7793 18.3829C51.691 19.6123 53.9164 20.265 56.1893 20.2629C63.8823 20.2629 68.0893 13.8899 68.0893 8.3629C68.0893 8.1829 68.0843 8.0009 68.0763 7.8229C68.8952 7.23107 69.6019 6.49792 70.1633 5.6579L70.1623 5.6569Z" fill="#FD6E0A"/>
<path d="M70.1623 5.65593C69.3989 5.99362 68.5893 6.2154 67.7603 6.31393C68.634 5.79136 69.288 4.96894 69.6003 3.99993C68.7803 4.48793 67.8813 4.82993 66.9443 5.01493C66.3149 4.34151 65.4807 3.89489 64.5713 3.74451C63.6618 3.59413 62.7282 3.74842 61.9156 4.18338C61.1029 4.61834 60.4567 5.30961 60.0774 6.14972C59.6981 6.98983 59.607 7.93171 59.8183 8.82893C58.1554 8.74558 56.5286 8.31345 55.0436 7.56059C53.5585 6.80773 52.2484 5.75097 51.1983 4.45893C50.8266 5.09738 50.6313 5.82315 50.6323 6.56193C50.6323 8.01193 51.3703 9.29293 52.4923 10.0429C51.8283 10.022 51.1789 9.84271 50.5983 9.51993V9.57193C50.5985 10.5376 50.9327 11.4735 51.5441 12.221C52.1556 12.9684 53.0068 13.4814 53.9533 13.6729C53.3369 13.84 52.6906 13.8646 52.0633 13.7449C52.3302 14.5762 52.8503 15.3031 53.5509 15.824C54.2515 16.3449 55.0974 16.6337 55.9703 16.6499C55.1028 17.3313 54.1095 17.8349 53.0472 18.1321C51.9849 18.4293 50.8744 18.5142 49.7793 18.3819C51.691 19.6114 53.9164 20.264 56.1893 20.2619C63.8823 20.2619 68.0893 13.8889 68.0893 8.36193C68.0893 8.18193 68.0843 7.99993 68.0763 7.82193C68.8952 7.23009 69.6019 6.49695 70.1633 5.65693L70.1623 5.65593Z" fill="#FD6E0A"/>
<path d="M108 2C110.717 2 111.056 2.01 112.122 2.06C113.187 2.11 113.912 2.277 114.55 2.525C115.21 2.779 115.766 3.123 116.322 3.678C116.83 4.1779 117.224 4.78259 117.475 5.45C117.722 6.087 117.89 6.813 117.94 7.878C117.987 8.944 118 9.283 118 12C118 14.717 117.99 15.056 117.94 16.122C117.89 17.187 117.722 17.912 117.475 18.55C117.225 19.2178 116.831 19.8226 116.322 20.322C115.822 20.8303 115.217 21.2238 114.55 21.475C113.913 21.722 113.187 21.89 112.122 21.94C111.056 21.987 110.717 22 108 22C105.283 22 104.944 21.99 103.878 21.94C102.813 21.89 102.088 21.722 101.45 21.475C100.782 21.2245 100.178 20.8309 99.678 20.322C99.1694 19.8222 98.7759 19.2175 98.525 18.55C98.277 17.913 98.11 17.187 98.06 16.122C98.013 15.056 98 14.717 98 12C98 9.283 98.01 8.944 98.06 7.878C98.11 6.812 98.277 6.088 98.525 5.45C98.7752 4.78218 99.1688 4.17732 99.678 3.678C100.178 3.16923 100.782 2.77573 101.45 2.525C102.088 2.277 102.812 2.11 103.878 2.06C104.944 2.013 105.283 2 108 2ZM108 7C106.674 7 105.402 7.52678 104.464 8.46447C103.527 9.40215 103 10.6739 103 12C103 13.3261 103.527 14.5979 104.464 15.5355C105.402 16.4732 106.674 17 108 17C109.326 17 110.598 16.4732 111.536 15.5355C112.473 14.5979 113 13.3261 113 12C113 10.6739 112.473 9.40215 111.536 8.46447C110.598 7.52678 109.326 7 108 7ZM114.5 6.75C114.5 6.41848 114.368 6.10054 114.134 5.86612C113.899 5.6317 113.582 5.5 113.25 5.5C112.918 5.5 112.601 5.6317 112.366 5.86612C112.132 6.10054 112 6.41848 112 6.75C112 7.08152 112.132 7.39946 112.366 7.63388C112.601 7.8683 112.918 8 113.25 8C113.582 8 113.899 7.8683 114.134 7.63388C114.368 7.39946 114.5 7.08152 114.5 6.75ZM108 9C108.796 9 109.559 9.31607 110.121 9.87868C110.684 10.4413 111 11.2044 111 12C111 12.7956 110.684 13.5587 110.121 14.1213C109.559 14.6839 108.796 15 108 15C107.204 15 106.441 14.6839 105.879 14.1213C105.316 13.5587 105 12.7956 105 12C105 11.2044 105.316 10.4413 105.879 9.87868C106.441 9.31607 107.204 9 108 9Z" fill="#FD6E0A"/>
</svg>
